<svg width="75" height="75" viewBox="0 0 75 75" fill="none" xmlns="http://www.w3.org/2000/svg">
<circle cx="37.5" cy="37.5" r="37.5" fill="#AECDFB"/>
<path d="M42.6376 38.358C43.8631 37.426 44.7576 36.1479 45.1967 34.7016C45.6357 33.2552 45.5975 31.7125 45.0874 30.2882C44.5772 28.8638 43.6204 27.6285 42.3502 26.7542C41.08 25.88 39.5594 25.4102 38.0001 25.4102C36.4408 25.4102 34.9203 25.88 33.65 26.7542C32.3798 27.6285 31.423 28.8638 30.9129 30.2882C30.4027 31.7125 30.3645 33.2552 30.8036 34.7016C31.2426 36.1479 32.1371 37.426 33.3626 38.358C31.2627 39.1713 29.4305 40.5202 28.0612 42.2609C26.692 44.0015 25.8371 46.0688 25.5876 48.2422C25.5696 48.4009 25.584 48.5615 25.6301 48.7147C25.6763 48.868 25.7532 49.011 25.8565 49.1356C26.0651 49.3871 26.3686 49.5482 26.7001 49.5835L27.6243 49.5839C27.8845 49.5839 28.0512 49.5839 28.0876 49.5839C28.3621 49.5839 29.5272 49.5839 31.3604 49.5839C31.3604 49.5839 35.5662 49.5839 38.0251 49.5839C40.484 49.5839 44.6898 49.5839 44.6898 49.5839H47.9626H48.374C48.374 49.5839 48.9036 49.5853 49.2126 49.5835C49.5216 49.5816 49.3501 49.5835 49.3501 49.5835C49.6778 49.547 49.9773 49.3869 50.1833 49.1379C50.3894 48.8889 50.4853 48.5713 50.4501 48.2543C50.1995 46.0747 49.34 44.0022 47.9637 42.2588C46.5874 40.5154 44.7463 39.167 42.6376 38.358ZM38.0001 37.5006H35.2223H33.3807H33.0962C33.0962 37.5006 33.7653 38.1765 34.4646 37.5006H37.0247H39.9135H42.1575C42.7069 38.2954 43.0001 37.5006 43.0001 37.5006C43.0001 37.5006 42.4733 36.5941 41.5357 37.5006H38.0001Z" fill="#1F73EF"/>
</svg>
